<svg id="visual" viewBox="0 0 900 600" width="900" height="600" xmlns="http://www.w3.org/2000/svg" xmlns:xlink="http://www.w3.org/1999/xlink" version="1.1"><rect x="0" y="0" width="900" height="600" fill="#002233"></rect><path d="M0 326L21.5 342.3C43 358.7 86 391.3 128.8 403.8C171.7 416.3 214.3 408.7 257.2 407.5C300 406.3 343 411.7 385.8 396.5C428.7 381.3 471.3 345.7 514.2 357.5C557 369.3 600 428.7 642.8 427.2C685.7 425.7 728.3 363.3 771.2 332.8C814 302.3 857 303.7 878.5 304.3L900 305L900 601L878.5 601C857 601 814 601 771.2 601C728.3 601 685.7 601 642.8 601C600 601 557 601 514.2 601C471.3 601 428.7 601 385.8 601C343 601 300 601 257.2 601C214.3 601 171.7 601 128.8 601C86 601 43 601 21.5 601L0 601Z" fill="#0066FF" stroke-linecap="round" stroke-linejoin="miter"></path></svg>